<svg xmlns="http://www.w3.org/2000/svg" viewBox="0 0 128 128" width="128" height="128">
  <defs>
    <linearGradient id="bg" x1="0" y1="0" x2="1" y2="1">
      <stop offset="0" stop-color="#2b6cff"/>
      <stop offset="1" stop-color="#8b3dff"/>
    </linearGradient>
  </defs>

  <rect x="0" y="0" width="128" height="128" rx="26" fill="url(#bg)"/>

  <!-- Left document -->
  <g>
    <rect x="20" y="30" width="34" height="44" rx="5" fill="#ffffff"/>
    <rect x="26" y="39" width="22" height="3.5" rx="1.75" fill="#2b6cff"/>
    <rect x="26" y="47" width="22" height="3.5" rx="1.75" fill="#9db6ff"/>
    <rect x="26" y="55" width="15" height="3.5" rx="1.75" fill="#9db6ff"/>
    <rect x="26" y="63" width="18" height="3.5" rx="1.75" fill="#9db6ff"/>
  </g>

  <!-- Right document -->
  <g>
    <rect x="74" y="54" width="34" height="44" rx="5" fill="#ffffff"/>
    <rect x="80" y="63" width="22" height="3.5" rx="1.75" fill="#8b3dff"/>
    <rect x="80" y="71" width="22" height="3.5" rx="1.75" fill="#c9adff"/>
    <rect x="80" y="79" width="15" height="3.5" rx="1.75" fill="#c9adff"/>
    <rect x="80" y="87" width="18" height="3.5" rx="1.75" fill="#c9adff"/>
  </g>

  <!-- Conversion arrows -->
  <g fill="none" stroke="#ffffff" stroke-width="6" stroke-linecap="round" stroke-linejoin="round">
    <path d="M52 44h24"/>
    <path d="M76 44l-8-7M76 44l-8 7"/>
    <path d="M76 84H52"/>
    <path d="M52 84l8-7M52 84l8 7"/>
  </g>
</svg>
